# xmcd
#
# Track frame offsets: 
#        150
#        14958
#        29218
#        48253
#        71426
#        83098
#        100459
#        117359
#        135634
#        152919
#        178309
#        191872
#        233252
#        251314
#        269995
#
# Disc length: 3807 seconds
#
# Revision: 2
# Processed by: cddbd v1.5.2PL0 Copyright (c) Steve Scherf et al.
# Submitted via: ExactAudioCopy v1.3
#
DISCID=de0edd0f
DTITLE=John Denver - The Very Best Of John Denver
DYEAR=2002
DGENRE=Country
TTITLE0=Take Me Home, Country Roads
TTITLE1=Annie's Song
TTITLE2=Rocky Mountain High
TTITLE3=Sunshine On My Shoulders
TTITLE4=In A Far Away Land (Chinese)
TTITLE5=Calypso
TTITLE6=Never A Doubt
TTITLE7=Windsong
TTITLE8=A Country Girl In Paris
TTITLE9=Amazon
TTITLE10=Eagle and The Hawk
TTITLE11=The Foxfire Suite
TTITLE12=Potter's Wheel (live)
TTITLE13=Tenderly Calling
TTITLE14=Rocky Mountain Suite
EXTD=
EXTT0=
EXTT1=
EXTT2=
EXTT3=
EXTT4=
EXTT5=
EXTT6=
EXTT7=
EXTT8=
EXTT9=
EXTT10=
EXTT11=
EXTT12=
EXTT13=
EXTT14=
PLAYORDER=
